<mxfile host="Electron" agent="Mozilla/5.0 (X11; Linux x86_64) AppleWebKit/537.36 (KHTML, like Gecko) draw.io/28.2.5 Chrome/138.0.7204.251 Electron/37.6.1 Safari/537.36" version="28.2.5">
  <diagram name="Página-1" id="BexddhNUsNOlBDjxiRMl">
    <mxGraphModel dx="1699" dy="531" grid="1" gridSize="10" guides="1" tooltips="1" connect="1" arrows="1" fold="1" page="1" pageScale="1" pageWidth="827" pageHeight="1169" math="0" shadow="0">
      <root>
        <mxCell id="0" />
        <mxCell id="1" parent="0" />
        <mxCell id="rfHR4acGa2c92AsHZX4z-1" value="Registrando&lt;div&gt;&lt;br&gt;&lt;/div&gt;" style="rounded=0;whiteSpace=wrap;html=1;" vertex="1" parent="1">
          <mxGeometry x="260" y="190" width="120" height="60" as="geometry" />
        </mxCell>
        <mxCell id="rfHR4acGa2c92AsHZX4z-2" value="" style="endArrow=none;html=1;rounded=0;exitX=0.5;exitY=0;exitDx=0;exitDy=0;" edge="1" parent="1" source="rfHR4acGa2c92AsHZX4z-1" target="rfHR4acGa2c92AsHZX4z-3">
          <mxGeometry width="50" height="50" relative="1" as="geometry">
            <mxPoint x="270" y="300" as="sourcePoint" />
            <mxPoint x="260" y="70" as="targetPoint" />
          </mxGeometry>
        </mxCell>
        <mxCell id="rfHR4acGa2c92AsHZX4z-3" value="" style="ellipse;whiteSpace=wrap;html=1;aspect=fixed;fillColor=#000000;" vertex="1" parent="1">
          <mxGeometry x="305" y="50" width="30" height="30" as="geometry" />
        </mxCell>
        <mxCell id="rfHR4acGa2c92AsHZX4z-4" value="Se presiona el botón &amp;lt;Registrar Asistencia&amp;gt; / acciones 1" style="text;html=1;align=center;verticalAlign=middle;whiteSpace=wrap;rounded=0;" vertex="1" parent="1">
          <mxGeometry x="305" y="110" width="230" height="30" as="geometry" />
        </mxCell>
        <mxCell id="rfHR4acGa2c92AsHZX4z-5" value="Validando&amp;nbsp;&lt;div&gt;Tarjeta&lt;/div&gt;" style="rounded=0;whiteSpace=wrap;html=1;" vertex="1" parent="1">
          <mxGeometry x="90" y="330" width="120" height="60" as="geometry" />
        </mxCell>
        <mxCell id="rfHR4acGa2c92AsHZX4z-6" value="Validando&lt;div&gt;Huella&lt;/div&gt;" style="rounded=0;whiteSpace=wrap;html=1;" vertex="1" parent="1">
          <mxGeometry x="620" y="245" width="120" height="60" as="geometry" />
        </mxCell>
        <mxCell id="rfHR4acGa2c92AsHZX4z-7" value="" style="endArrow=classic;html=1;rounded=0;entryX=0.75;entryY=0;entryDx=0;entryDy=0;exitX=0.25;exitY=1;exitDx=0;exitDy=0;" edge="1" parent="1" source="rfHR4acGa2c92AsHZX4z-1" target="rfHR4acGa2c92AsHZX4z-5">
          <mxGeometry width="50" height="50" relative="1" as="geometry">
            <mxPoint x="270" y="300" as="sourcePoint" />
            <mxPoint x="320" y="250" as="targetPoint" />
          </mxGeometry>
        </mxCell>
        <mxCell id="rfHR4acGa2c92AsHZX4z-8" value="" style="endArrow=classic;html=1;rounded=0;entryX=0.25;entryY=0;entryDx=0;entryDy=0;exitX=1;exitY=1;exitDx=0;exitDy=0;" edge="1" parent="1" source="rfHR4acGa2c92AsHZX4z-1" target="rfHR4acGa2c92AsHZX4z-6">
          <mxGeometry width="50" height="50" relative="1" as="geometry">
            <mxPoint x="270" y="300" as="sourcePoint" />
            <mxPoint x="320" y="250" as="targetPoint" />
          </mxGeometry>
        </mxCell>
        <mxCell id="rfHR4acGa2c92AsHZX4z-9" value="Se selecciona &quot;Registrar con huella dactilar&quot; / acciones 3" style="text;html=1;align=center;verticalAlign=middle;whiteSpace=wrap;rounded=0;" vertex="1" parent="1">
          <mxGeometry x="400" y="190" width="220" height="30" as="geometry" />
        </mxCell>
        <mxCell id="rfHR4acGa2c92AsHZX4z-10" value="Se selecciona &quot;Registrar con tarjeta&quot; / acciones 2" style="text;html=1;align=center;verticalAlign=middle;whiteSpace=wrap;rounded=0;" vertex="1" parent="1">
          <mxGeometry x="60" y="260" width="180" height="30" as="geometry" />
        </mxCell>
        <mxCell id="rfHR4acGa2c92AsHZX4z-11" value="" style="endArrow=none;html=1;rounded=0;entryX=1;entryY=1;entryDx=0;entryDy=0;" edge="1" parent="1" source="rfHR4acGa2c92AsHZX4z-12" target="rfHR4acGa2c92AsHZX4z-6">
          <mxGeometry width="50" height="50" relative="1" as="geometry">
            <mxPoint x="600" y="480" as="sourcePoint" />
            <mxPoint x="320" y="250" as="targetPoint" />
          </mxGeometry>
        </mxCell>
        <mxCell id="rfHR4acGa2c92AsHZX4z-12" value="" style="ellipse;whiteSpace=wrap;html=1;aspect=fixed;fillColor=#000000;fillStyle=dots;" vertex="1" parent="1">
          <mxGeometry x="790" y="370" width="30" height="30" as="geometry" />
        </mxCell>
        <mxCell id="rfHR4acGa2c92AsHZX4z-14" value="" style="endArrow=none;html=1;rounded=0;exitX=0;exitY=1;exitDx=0;exitDy=0;" edge="1" parent="1" source="rfHR4acGa2c92AsHZX4z-5" target="rfHR4acGa2c92AsHZX4z-15">
          <mxGeometry width="50" height="50" relative="1" as="geometry">
            <mxPoint x="270" y="330" as="sourcePoint" />
            <mxPoint x="70" y="480" as="targetPoint" />
          </mxGeometry>
        </mxCell>
        <mxCell id="rfHR4acGa2c92AsHZX4z-15" value="" style="ellipse;whiteSpace=wrap;html=1;aspect=fixed;fillColor=#000000;fillStyle=dots;" vertex="1" parent="1">
          <mxGeometry x="30" y="460" width="30" height="30" as="geometry" />
        </mxCell>
        <mxCell id="rfHR4acGa2c92AsHZX4z-16" value="" style="endArrow=none;html=1;rounded=0;entryX=0.5;entryY=1;entryDx=0;entryDy=0;" edge="1" parent="1" source="rfHR4acGa2c92AsHZX4z-17" target="rfHR4acGa2c92AsHZX4z-5">
          <mxGeometry width="50" height="50" relative="1" as="geometry">
            <mxPoint x="80" y="520" as="sourcePoint" />
            <mxPoint x="320" y="280" as="targetPoint" />
          </mxGeometry>
        </mxCell>
        <mxCell id="rfHR4acGa2c92AsHZX4z-17" value="" style="ellipse;whiteSpace=wrap;html=1;aspect=fixed;fillColor=#000000;fillStyle=dots;" vertex="1" parent="1">
          <mxGeometry x="135" y="510" width="30" height="30" as="geometry" />
        </mxCell>
        <mxCell id="rfHR4acGa2c92AsHZX4z-19" value="Se pasa la tarjeta por el lector [tarjeta válida] / acciones 4" style="text;html=1;align=center;verticalAlign=middle;whiteSpace=wrap;rounded=0;" vertex="1" parent="1">
          <mxGeometry x="200" y="340" width="220" height="30" as="geometry" />
        </mxCell>
        <mxCell id="rfHR4acGa2c92AsHZX4z-20" value="" style="curved=1;endArrow=classic;html=1;rounded=0;exitX=1.025;exitY=0.117;exitDx=0;exitDy=0;exitPerimeter=0;entryX=1;entryY=0;entryDx=0;entryDy=0;" edge="1" parent="1" source="rfHR4acGa2c92AsHZX4z-5" target="rfHR4acGa2c92AsHZX4z-5">
          <mxGeometry width="50" height="50" relative="1" as="geometry">
            <mxPoint x="230" y="350" as="sourcePoint" />
            <mxPoint x="280" y="300" as="targetPoint" />
            <Array as="points">
              <mxPoint x="280" y="350" />
              <mxPoint x="340" y="300" />
            </Array>
          </mxGeometry>
        </mxCell>
        <mxCell id="rfHR4acGa2c92AsHZX4z-21" value="" style="curved=1;endArrow=classic;html=1;rounded=0;exitX=1;exitY=1;exitDx=0;exitDy=0;entryX=0;entryY=0.5;entryDx=0;entryDy=0;" edge="1" parent="1" source="rfHR4acGa2c92AsHZX4z-5" target="rfHR4acGa2c92AsHZX4z-19">
          <mxGeometry width="50" height="50" relative="1" as="geometry">
            <mxPoint x="230" y="350" as="sourcePoint" />
            <mxPoint x="280" y="300" as="targetPoint" />
            <Array as="points">
              <mxPoint x="250" y="410" />
              <mxPoint x="260" y="350" />
            </Array>
          </mxGeometry>
        </mxCell>
        <mxCell id="rfHR4acGa2c92AsHZX4z-24" value="Se presiona dígito [cantidad dígitos &amp;lt; 4 &amp;amp;&amp;amp; intentos &amp;lt;3] / acciones x" style="edgeLabel;html=1;align=center;verticalAlign=middle;resizable=0;points=[];" vertex="1" connectable="0" parent="rfHR4acGa2c92AsHZX4z-21">
          <mxGeometry x="-0.1589" y="2" relative="1" as="geometry">
            <mxPoint x="118" y="15" as="offset" />
          </mxGeometry>
        </mxCell>
        <mxCell id="rfHR4acGa2c92AsHZX4z-25" value="Se presiona dígito [digitos válidos] / acciones OK" style="text;html=1;align=center;verticalAlign=middle;whiteSpace=wrap;rounded=0;" vertex="1" parent="1">
          <mxGeometry x="-100" y="400" width="170" height="30" as="geometry" />
        </mxCell>
        <mxCell id="rfHR4acGa2c92AsHZX4z-26" value="" style="endArrow=none;html=1;rounded=0;exitX=0;exitY=0;exitDx=0;exitDy=0;" edge="1" parent="1" source="rfHR4acGa2c92AsHZX4z-5" target="rfHR4acGa2c92AsHZX4z-27">
          <mxGeometry width="50" height="50" relative="1" as="geometry">
            <mxPoint x="230" y="350" as="sourcePoint" />
            <mxPoint x="-10" y="280" as="targetPoint" />
          </mxGeometry>
        </mxCell>
        <mxCell id="rfHR4acGa2c92AsHZX4z-27" value="" style="ellipse;whiteSpace=wrap;html=1;aspect=fixed;fillColor=#000000;fillStyle=dots;" vertex="1" parent="1">
          <mxGeometry x="-50" y="240" width="30" height="30" as="geometry" />
        </mxCell>
        <mxCell id="rfHR4acGa2c92AsHZX4z-28" value="Se pasa la tarjeta por el lector [tarjeta inválida] / acciones x" style="text;html=1;align=center;verticalAlign=middle;whiteSpace=wrap;rounded=0;" vertex="1" parent="1">
          <mxGeometry x="-120" y="290" width="130" height="30" as="geometry" />
        </mxCell>
        <mxCell id="rfHR4acGa2c92AsHZX4z-29" value="" style="endArrow=none;html=1;rounded=0;exitX=1;exitY=0;exitDx=0;exitDy=0;" edge="1" parent="1" source="rfHR4acGa2c92AsHZX4z-6" target="rfHR4acGa2c92AsHZX4z-30">
          <mxGeometry width="50" height="50" relative="1" as="geometry">
            <mxPoint x="720" y="350" as="sourcePoint" />
            <mxPoint x="820" y="270" as="targetPoint" />
          </mxGeometry>
        </mxCell>
        <mxCell id="rfHR4acGa2c92AsHZX4z-30" value="" style="ellipse;whiteSpace=wrap;html=1;aspect=fixed;fillColor=#000000;fillStyle=dots;" vertex="1" parent="1">
          <mxGeometry x="770" y="110" width="30" height="30" as="geometry" />
        </mxCell>
        <mxCell id="rfHR4acGa2c92AsHZX4z-31" value="Se ingresa huella [huella válida]&amp;nbsp; / acciones OK" style="text;html=1;align=center;verticalAlign=middle;whiteSpace=wrap;rounded=0;" vertex="1" parent="1">
          <mxGeometry x="760" y="170" width="150" height="30" as="geometry" />
        </mxCell>
        <mxCell id="rfHR4acGa2c92AsHZX4z-33" value="Se presiona dígito [exceso de intentos] / se anula la operación y se devuelve la tarjeta" style="text;html=1;align=center;verticalAlign=middle;whiteSpace=wrap;rounded=0;" vertex="1" parent="1">
          <mxGeometry x="140" y="450" width="230" height="30" as="geometry" />
        </mxCell>
        <mxCell id="rfHR4acGa2c92AsHZX4z-34" value="Se ingresa huella [huella inválida] / acciones ERROR" style="text;html=1;align=center;verticalAlign=middle;whiteSpace=wrap;rounded=0;" vertex="1" parent="1">
          <mxGeometry x="760" y="305" width="150" height="30" as="geometry" />
        </mxCell>
        <mxCell id="rfHR4acGa2c92AsHZX4z-36" value="Acciones" style="swimlane;fontStyle=0;childLayout=stackLayout;horizontal=1;startSize=30;horizontalStack=0;resizeParent=1;resizeParentMax=0;resizeLast=0;collapsible=1;marginBottom=0;whiteSpace=wrap;html=1;" vertex="1" parent="1">
          <mxGeometry x="520" y="450" width="140" height="120" as="geometry" />
        </mxCell>
        <mxCell id="rfHR4acGa2c92AsHZX4z-37" value="Acciones 1:" style="text;strokeColor=none;fillColor=none;align=left;verticalAlign=middle;spacingLeft=4;spacingRight=4;overflow=hidden;points=[[0,0.5],[1,0.5]];portConstraint=eastwest;rotatable=0;whiteSpace=wrap;html=1;" vertex="1" parent="rfHR4acGa2c92AsHZX4z-36">
          <mxGeometry y="30" width="140" height="30" as="geometry" />
        </mxCell>
        <mxCell id="rfHR4acGa2c92AsHZX4z-38" value="Acciones 2:&amp;nbsp;" style="text;strokeColor=none;fillColor=none;align=left;verticalAlign=middle;spacingLeft=4;spacingRight=4;overflow=hidden;points=[[0,0.5],[1,0.5]];portConstraint=eastwest;rotatable=0;whiteSpace=wrap;html=1;" vertex="1" parent="rfHR4acGa2c92AsHZX4z-36">
          <mxGeometry y="60" width="140" height="30" as="geometry" />
        </mxCell>
        <mxCell id="rfHR4acGa2c92AsHZX4z-39" value="Acciones 3:" style="text;strokeColor=none;fillColor=none;align=left;verticalAlign=middle;spacingLeft=4;spacingRight=4;overflow=hidden;points=[[0,0.5],[1,0.5]];portConstraint=eastwest;rotatable=0;whiteSpace=wrap;html=1;" vertex="1" parent="rfHR4acGa2c92AsHZX4z-36">
          <mxGeometry y="90" width="140" height="30" as="geometry" />
        </mxCell>
      </root>
    </mxGraphModel>
  </diagram>
</mxfile>
